<svg id="a624f4de-8bad-4096-8d94-b6a6aa8b913d" data-name="triangle" xmlns="http://www.w3.org/2000/svg" viewBox="0 0 400 400"><title>geom_icons</title><path d="M200,64.19c3.26,0,8.9,4,14.14,13.1L350,311.64c5.16,8.91,5.88,15.67,4.29,18.41s-8.12,5.76-18.86,5.76H64.59c-10.74,0-17.21-2.89-18.86-5.76s-.87-9.5,4.29-18.41L185.86,77.29c5.25-9.05,10.88-13.1,14.14-13.1m0-25c-12.94,0-25.89,8.52-35.77,25.56L28.39,299.1c-19.75,34.08-3.54,61.71,36.2,61.71H335.41c39.74,0,55.95-27.63,36.2-61.71L235.77,64.75C225.89,47.71,213,39.19,200,39.19Z"/></svg>