<svg xmlns="http://www.w3.org/2000/svg" viewBox="0 0 400 400"><title>geom_icons</title><g id="b22dcf28-4a3f-497a-9880-67cbacc80514" data-name="star"><path d="M207.55,54.74h0M200,70,232,135a46.18,46.18,0,0,0,34.81,25.3l71.68,10.41-51.87,50.56a46.2,46.2,0,0,0-13.28,40.92l12.24,71.38-64.13-33.72a46.28,46.28,0,0,0-43,0l-64.09,33.71,12.24-71.39a46.23,46.23,0,0,0-13.29-40.92L61.47,170.69l71.66-10.41A46.16,46.16,0,0,0,168,135L200,70m0-30.59a11.36,11.36,0,0,0-10.38,6.45L150,126.14a26.18,26.18,0,0,1-19.75,14.35L41.71,153.36a11.58,11.58,0,0,0-6.41,19.75l64.08,62.47a26.21,26.21,0,0,1,7.54,23.21L91.8,347a11.38,11.38,0,0,0,4.6,11.33,11.49,11.49,0,0,0,6.77,2.24,11.79,11.79,0,0,0,5.43-1.35l79.19-41.65a26.27,26.27,0,0,1,24.42,0l79.2,41.65a11.78,11.78,0,0,0,5.42,1.35,11.54,11.54,0,0,0,6.78-2.24,11.38,11.38,0,0,0,4.6-11.33l-15.12-88.19a26.2,26.2,0,0,1,7.53-23.22l64.08-62.46a11.58,11.58,0,0,0-6.42-19.75l-88.55-12.87A26.2,26.2,0,0,1,250,126.14L210.39,45.9A11.39,11.39,0,0,0,200,39.45Z"/></g></svg>