<svg xmlns="http://www.w3.org/2000/svg" viewBox="0 0 400 400"><title>geom_icons</title><g id="afb4e623-053e-47bb-b4f1-78c634319267" data-name="hexagone"><path d="M276,60.36a8.07,8.07,0,0,1,6.95,4l76,131.62a8.05,8.05,0,0,1,0,8l-76,131.61a8.07,8.07,0,0,1-6.95,4H124a8.07,8.07,0,0,1-7-4L41.08,204a8,8,0,0,1,0-8l76-131.62a8.07,8.07,0,0,1,7-4H276m0-20H124a28,28,0,0,0-24.27,14L23.76,186a28,28,0,0,0,0,28l76,131.62a28,28,0,0,0,24.27,14H276a28,28,0,0,0,24.27-14l76-131.61a28,28,0,0,0,0-28l-76-131.62a28,28,0,0,0-24.27-14Z"/></g></svg>