<svg xmlns="http://www.w3.org/2000/svg" viewBox="0 0 400 400"><title>geom_icons</title><g id="a196ac27-1285-4c32-911e-fefabf94c6e4" data-name="octagone"><path d="M256,55.78a9.09,9.09,0,0,1,6.47,2.68l79.12,79.12a9.09,9.09,0,0,1,2.68,6.47V256a9.09,9.09,0,0,1-2.68,6.47l-79.12,79.12a9.1,9.1,0,0,1-6.48,2.68H144.06a9.1,9.1,0,0,1-6.48-2.68L58.46,262.41a9.06,9.06,0,0,1-2.68-6.47V144.05a9.09,9.09,0,0,1,2.68-6.47l79.12-79.12a9.09,9.09,0,0,1,6.47-2.68H256m0-20H144.05a29.14,29.14,0,0,0-20.61,8.54L44.32,123.44a29.14,29.14,0,0,0-8.54,20.61V255.94a29.15,29.15,0,0,0,8.54,20.62l79.12,79.12a29.15,29.15,0,0,0,20.62,8.54H255.94a29.15,29.15,0,0,0,20.62-8.54l79.12-79.12A29.14,29.14,0,0,0,364.22,256V144.05a29.14,29.14,0,0,0-8.54-20.61L276.56,44.32A29.14,29.14,0,0,0,256,35.78Z"/></g></svg>