<?xml version="1.0" encoding="utf-8"?>
<!-- Generator: Adobe Illustrator 23.0.0, SVG Export Plug-In . SVG Version: 6.00 Build 0)  -->
<svg version="1.1" xmlns="http://www.w3.org/2000/svg" xmlns:xlink="http://www.w3.org/1999/xlink" x="0px" y="0px"
	 viewBox="0 0 400 400" style="enable-background:new 0 0 400 400;" xml:space="preserve">
<g id="triangle">
	<g>
		<path d="M-1480,64.2c3.3,0,8.9,4,14.1,13.1l135.8,234.4c5.2,8.9,5.9,15.7,4.3,18.4c-1.6,2.9-8.1,5.8-18.9,5.8h-270.8
			c-10.7,0-17.2-2.9-18.9-5.8c-1.6-2.7-0.9-9.5,4.3-18.4l135.8-234.4C-1488.9,68.2-1483.3,64.2-1480,64.2 M-1480,39.2
			c-12.9,0-25.9,8.5-35.8,25.6l-135.8,234.4c-19.8,34.1-3.5,61.7,36.2,61.7h270.8c39.7,0,56-27.6,36.2-61.7l-135.8-234.4
			C-1454.1,47.7-1467.1,39.2-1480,39.2L-1480,39.2z"/>
	</g>
</g>
<g id="star">
	<g>
		<path d="M-2732.5,54.7L-2732.5,54.7L-2732.5,54.7 M-2740,70l32,64.9c6.7,13.7,19.7,23.1,34.8,25.3l71.7,10.4l-51.9,50.6
			c-10.9,10.6-15.9,25.9-13.3,40.9l12.2,71.4l-64.1-33.7c-6.6-3.5-14-5.3-21.5-5.3c-7.5,0-14.9,1.8-21.5,5.3l-64.1,33.7l12.2-71.4
			c2.6-15-2.4-30.3-13.3-40.9l-51.9-50.6l71.7-10.4c15.1-2.2,28.1-11.6,34.8-25.3L-2740,70 M-2740,39.4c-4.5,0-8.4,2.4-10.4,6.5
			l-39.6,80.2c-3.8,7.7-11.2,13.1-19.8,14.3l-88.5,12.9c-4.5,0.7-8,3.6-9.3,7.9c-1.4,4.3-0.3,8.7,2.9,11.9l64.1,62.5
			c6.2,6,9,14.7,7.5,23.2l-15.1,88.2c-0.8,4.4,1,8.7,4.6,11.3c2.1,1.5,4.4,2.2,6.8,2.2c1.8,0,3.7-0.5,5.4-1.4l79.2-41.6
			c3.8-2,8-3,12.2-3s8.4,1,12.2,3l79.2,41.6c1.7,0.9,3.6,1.4,5.4,1.4c2.4,0,4.7-0.8,6.8-2.2c3.6-2.7,5.4-6.9,4.6-11.3l-15.1-88.2
			c-1.5-8.5,1.4-17.2,7.5-23.2l64.1-62.5c3.2-3.1,4.3-7.6,2.9-11.9c-1.4-4.3-4.9-7.2-9.3-7.9l-88.6-12.9
			c-8.5-1.2-15.9-6.6-19.7-14.3l-39.6-80.2C-2731.6,41.9-2735.5,39.4-2740,39.4L-2740,39.4z"/>
	</g>
</g>
<g id="square">
	<g>
		<path d="M-2192.8,69.6L-2192.8,69.6c1.1,0,1.8,0.5,2.3,0.9c0.4,0.4,0.9,1.2,0.9,2.3l0,254.4c0,1.8-1.4,3.2-3.2,3.2h-254.4
			c-1.8,0-3.2-1.4-3.2-3.2V72.8c0-1.8,1.4-3.2,3.2-3.2L-2192.8,69.6 M-2192.8,49.6C-2192.8,49.6-2192.8,49.6-2192.8,49.6l-254.4,0
			c-12.8,0-23.2,10.4-23.2,23.2v254.4c0,12.8,10.4,23.2,23.2,23.2h254.4c12.8,0,23.2-10.4,23.2-23.2l0-254.4
			C-2169.6,60-2180,49.6-2192.8,49.6L-2192.8,49.6z"/>
	</g>
</g>
<g id="hexagone">
	<g>
		<path d="M-1824,60.4c2.9,0,5.5,1.5,7,4l76,131.6c1.4,2.5,1.4,5.6,0,8l-76,131.6c-1.4,2.5-4.1,4-7,4h-152c-2.9,0-5.5-1.5-7-4
			l-76-131.6c-1.4-2.5-1.4-5.6,0-8l76-131.6c1.4-2.5,4.1-4,7-4H-1824 M-1824,40.4h-152c-10,0-19.3,5.3-24.3,14l-76,131.6
			c-5,8.7-5,19.4,0,28l76,131.6c5,8.7,14.3,14,24.3,14h152c10,0,19.3-5.3,24.3-14l76-131.6c5-8.7,5-19.4,0-28l-76-131.6
			C-1804.7,45.7-1814,40.4-1824,40.4L-1824,40.4z"/>
	</g>
</g>
<g id="arrows-down">
	<g id="_x34__11_">
		<g>
			<path d="M-1060,286.1l-103.3-103.3c-9.5-9.5-24.9-9.5-34.4,0c-9.5,9.5-9.5,24.9,0,34.4l120.5,120.5c9.5,9.5,24.9,9.5,34.4,0
				l120.5-120.5c9.5-9.5,9.5-24.9,0-34.4c-9.5-9.5-24.9-9.5-34.4,0L-1060,286.1z M-1060.1,140.6l-78.6-78.3
				c-9.6-9.6-25.3-9.6-34.9,0c-9.6,9.6-9.6,25.2,0,34.8l96.1,95.7c9.6,9.6,16.7,8.1,26.2-1.4l104.8-94.3c9.6-9.6,9.6-25.2,0-34.8
				c-9.6-9.6-25.3-9.6-34.9,0L-1060.1,140.6z"/>
		</g>
	</g>
</g>
<g id="arrows-up">
	<path d="M200,121.8l93.8,93.8c8.6,8.6,22.6,8.6,31.3,0c8.6-8.6,8.6-22.6,0-31.3L215.6,74.9c-8.6-8.6-22.6-8.6-31.3,0L74.9,184.4
		c-8.6,8.6-8.6,22.6,0,31.3c8.6,8.6,22.6,8.6,31.3,0L200,121.8z M200.1,253.9l71.4,71.1c8.8,8.7,23,8.7,31.7,0
		c8.8-8.7,8.8-22.9,0-31.6L216,206.5c-8.8-8.7-15.2-7.3-23.8,1.3L97,293.4c-8.8,8.7-8.8,22.9,0,31.6c8.8,8.7,23,8.7,31.7,0
		L200.1,253.9z"/>
</g>
<g id="octagone">
	<g>
		<path d="M-584.1,55.8c2.4,0,4.7,1,6.5,2.7l79.1,79.1c1.7,1.7,2.7,4,2.7,6.5v111.9c0,2.4-1,4.7-2.7,6.5l-79.1,79.1
			c-1.7,1.7-4,2.7-6.5,2.7h-111.9c-2.4,0-4.7-1-6.5-2.7l-79.1-79.1c-1.7-1.7-2.7-4-2.7-6.5V144.1c0-2.4,1-4.7,2.7-6.5l79.1-79.1
			c1.7-1.7,4-2.7,6.5-2.7H-584.1 M-584.1,35.8h-111.9c-7.7,0-15.1,3.1-20.6,8.5l-79.1,79.1c-5.5,5.5-8.5,12.9-8.5,20.6v111.9
			c0,7.7,3.1,15.1,8.5,20.6l79.1,79.1c5.5,5.5,12.9,8.5,20.6,8.5h111.9c7.7,0,15.1-3.1,20.6-8.5l79.1-79.1
			c5.5-5.5,8.5-12.9,8.5-20.6V144.1c0-7.7-3.1-15.1-8.5-20.6l-79.1-79.1C-568.9,38.8-576.3,35.8-584.1,35.8L-584.1,35.8z"/>
	</g>
</g>
<g id="circle">
	<g>
		<path d="M-220,52.3c39.5,0,76.7,15.3,104.5,43.2c27.9,27.9,43.2,65,43.2,104.5c0,39.5-15.3,76.7-43.2,104.5
			c-27.9,27.9-65,43.2-104.5,43.2c-39.5,0-76.7-15.3-104.5-43.2c-57.6-57.6-57.6-151.4,0-209.1C-296.7,67.6-259.5,52.3-220,52.3
			 M-220,32.3c-43,0-85.9,16.4-118.7,49.1c-65.4,65.4-65.4,171.9,0,237.3c32.7,32.7,75.7,49.1,118.7,49.1s86-16.4,118.7-49.1
			c65.4-65.4,65.4-171.9,0-237.3C-134,48.6-177,32.3-220,32.3L-220,32.3z"/>
	</g>
</g>
</svg>
